<?xml version="1.0" ?><svg enable-background="new 0 0 515.91 728.5" height="512" id="Layer_1" version="1.1" viewBox="0 0 512.00003 512" width="512" xml:space="preserve" xmlns="http://www.w3.org/2000/svg" xmlns:cc="http://creativecommons.org/ns#" xmlns:dc="http://purl.org/dc/elements/1.1/" xmlns:inkscape="http://www.inkscape.org/namespaces/inkscape" xmlns:rdf="http://www.w3.org/1999/02/22-rdf-syntax-ns#" xmlns:sodipodi="http://sodipodi.sourceforge.net/DTD/sodipodi-0.dtd" xmlns:svg="http://www.w3.org/2000/svg"><defs id="defs7"/><g id="g6959" transform="translate(136.1786,108.25001)"><path d="m -733.62329,72.267944 c 0,203.804876 -165.21649,369.021366 -369.02141,369.021366 -203.8048,0 -369.0213,-165.21649 -369.0213,-369.021366 0,-203.804874 165.2165,-369.021364 369.0213,-369.021364 203.80492,0 369.02141,165.21649 369.02141,369.021364 z" id="path5078" style="fill:#000000;fill-opacity:0.97254902;fill-rule:nonzero;stroke:none" transform="matrix(0.69372682,0,0,0.69372682,884.75558,97.615782)"/><path d="m 17.751219,7.7603724 c 21.735,-8.66709995 40.802,-13.0217 58.2513,-13.3438 9.1617,0 17.8097,0.9851 26.009201,2.8903 12.4813,3.18560005 29.75431,12.5389 36.33621,16.2954996 L 107.09852,120.01198 C 91.174819,109.85748 71.958319,99.994282 45.972219,99.729782 h -0.023 c -17.3305,0 -36.1599003,3.990498 -57.9792,12.182398 L 17.751219,7.7603724 z m 48.9401,255.1890176 c 7.728,-26.1242 26.2852,-89.22091 31.8244,-108.08091 -4.0174,-2.438 -8.1114,-4.8837 -12.3012,-7.1453 -16.0808,-8.2225 -31.7055,-12.3894 -46.46,-12.3894 -2.001,0 -4.0097,0.061 -6.0413,0.2339 -18.8294,1.5486 -36.0142003,6.4975 -47.0849,10.3385 -2.9363,1.0695 -5.9263,2.2003 -9.0352,3.4538 L -52.67869,253.77239 c 20.803509,-7.659 39.184309,-11.3812 56.0319087,-11.3812 27.2396003,0 46.9966003,10.1315 63.3381003,20.5582 z M 250.98273,185.13648 c -19.7531,6.3442 -38.7013,9.5604 -56.4228,9.5604 -32.3265,0 -54.9585,-10.4267 -69.2339,-20.4355 L 94.858719,279.60139 c 9.039001,5.152 39.445011,21.482 62.736311,21.482 18.7987,0 39.8399,-4.7993 64.2927,-14.6893 l 29.095,-101.25761 z M 292.32144,42.498072 c -19.81831,7.659 -39.15371,11.5613 -57.62271,11.5613 -30.889,0 -53.6667,-10.6604 -68.425,-20.9108 l -30.981,106.704708 c 20.8073,13.3171 43.2285,20.0752 66.7537,20.0752 19.1858,0 39.0578,-4.5847 59.1138,-13.6428 l -0.061,-0.7399 1.2574,-0.3028 29.96511,-102.744908 z" id="Windows" style="fill:#ffffff;fill-opacity:1"/></g></svg>